<svg width="16" height="16" viewBox="0 0 16 16" fill="none" xmlns="http://www.w3.org/2000/svg">
<g id="Group 22">
<path id="Intersect" d="M8.6051 3.05001L8.60506 3.04322C8.60506 2.71656 8.33003 2.44434 8 2.44434C7.66996 2.44434 7.39494 2.71656 7.39494 3.04322L7.39489 3.05005C7.38798 3.98693 7.07763 4.84898 6.55761 5.54764C6.50846 5.61367 6.45744 5.67825 6.40462 5.74128C6.22376 5.95715 6.02187 6.15502 5.80212 6.3319C5.7429 6.37957 5.68239 6.42571 5.62064 6.47026C4.89908 6.99092 4.00896 7.29538 3.0495 7.28989L3.04241 7.28993C2.71554 7.2938 2.44444 7.56446 2.44444 7.88878C2.44444 8.2131 2.71554 8.48376 3.04241 8.48763L3.0495 8.48767C4.00729 8.48219 4.89597 8.78778 5.61685 9.30852C5.6793 9.35363 5.7405 9.40036 5.80037 9.44864C6.0195 9.62536 6.22089 9.82286 6.40141 10.0381C6.4546 10.1015 6.50598 10.1665 6.55547 10.2329C7.07678 10.9327 7.38797 11.7948 7.39489 12.7276L7.39494 12.7343C7.39494 13.061 7.66996 13.3332 8 13.3332C8.33003 13.3332 8.60506 13.061 8.60506 12.7343L8.6051 12.7275C8.61202 11.7906 8.92236 10.9286 9.44238 10.2299C9.49153 10.1639 9.54256 10.0993 9.59537 10.0363C9.77623 9.82041 9.97812 9.62254 10.1979 9.44566C10.2571 9.39799 10.3176 9.35185 10.3794 9.30729C11.1009 8.78664 11.991 8.48218 12.9505 8.48767L12.9576 8.48763C13.2845 8.48376 13.5556 8.2131 13.5556 7.88878C13.5556 7.56446 13.2845 7.2938 12.9576 7.28993L12.9505 7.28989C11.9927 7.29537 11.104 6.98978 10.3832 6.46904C10.3207 6.42393 10.2595 6.3772 10.1996 6.32892C9.9805 6.1522 9.77911 5.95469 9.59859 5.73945C9.54539 5.67602 9.49401 5.61105 9.44452 5.54461C8.92321 4.84482 8.61203 3.98279 8.6051 3.05001Z" fill="white"/>
<path id="Intersect_2" fill-rule="evenodd" clip-rule="evenodd" d="M16 8C16 8.489 15.6131 8.8802 15.1294 8.8802C11.6953 8.86063 8.89964 11.6479 8.87062 15.1198C8.87062 15.6088 8.48368 16 8 16C7.51632 16 7.12938 15.6088 7.12938 15.1198C7.10036 11.6479 4.30472 8.86063 0.870617 8.88019C0.386942 8.88019 0 8.489 0 8C0 7.511 0.386942 7.1198 0.870617 7.1198C4.30472 7.13936 7.10036 4.35208 7.12938 0.880196C7.12938 0.391199 7.51632 -2.12203e-08 8 0C8.48368 2.12209e-08 8.87062 0.391199 8.87062 0.880196C8.89964 4.3423 11.6953 7.13936 15.1294 7.1198C15.6131 7.1198 16 7.511 16 8ZM3.48399 8C5.57667 7.23408 7.23621 5.56147 8.00073 3.45209C8.76598 5.55829 10.4251 7.23255 12.5175 7.99947C10.4248 8.76491 8.76502 10.437 8 12.5459C7.23516 10.4375 5.57601 8.76568 3.48399 8Z" fill="#FFA800"/>
</g>
</svg>
