<svg width="32" height="32" viewBox="0 0 32 32" fill="none" xmlns="http://www.w3.org/2000/svg">
<g id="Group 21">
<path id="Intersect" d="M17.2102 6.10026L17.2101 6.08669C17.2101 5.43336 16.6601 4.88892 16 4.88892C15.3399 4.88892 14.7899 5.43336 14.7899 6.08669L14.7898 6.10034C14.776 7.97409 14.1553 9.6982 13.1152 11.0955C13.0169 11.2276 12.9149 11.3567 12.8092 11.4828C12.4475 11.9145 12.0437 12.3103 11.6042 12.664C11.4858 12.7594 11.3648 12.8517 11.2413 12.9408C9.79817 13.9821 8.01793 14.591 6.09901 14.58L6.08482 14.5801C5.43107 14.5878 4.88889 15.1292 4.88889 15.7778C4.88889 16.4264 5.43107 16.9678 6.08482 16.9755L6.09901 16.9756C8.01457 16.9646 9.79194 17.5758 11.2337 18.6173C11.3586 18.7075 11.481 18.801 11.6007 18.8975C12.039 19.251 12.4418 19.646 12.8028 20.0765C12.9092 20.2033 13.012 20.3333 13.111 20.4661C14.1536 21.8657 14.7759 23.5898 14.7898 25.4553L14.7899 25.4689C14.7899 26.1222 15.3399 26.6667 16 26.6667C16.6601 26.6667 17.2101 26.1222 17.2101 25.4689L17.2102 25.4553C17.224 23.5815 17.8447 21.8574 18.8848 20.4601C18.9831 20.328 19.0851 20.1989 19.1908 20.0728C19.5525 19.6411 19.9562 19.2453 20.3958 18.8916C20.5142 18.7962 20.6352 18.7039 20.7587 18.6148C22.2018 17.5735 23.9821 16.9646 25.901 16.9756L25.9152 16.9755C26.5689 16.9678 27.1111 16.4265 27.1111 15.7778C27.1111 15.1292 26.5689 14.5878 25.9152 14.5801L25.901 14.58C23.9854 14.591 22.2081 13.9798 20.7663 12.9383C20.6414 12.8481 20.519 12.7546 20.3993 12.6581C19.961 12.3047 19.5582 11.9096 19.1972 11.4791C19.0908 11.3523 18.988 11.2223 18.889 11.0895C17.8464 9.68989 17.2241 7.96583 17.2102 6.10026Z" fill="white"/>
<path id="Intersect_2" fill-rule="evenodd" clip-rule="evenodd" d="M32 16C32 16.978 31.2261 17.7604 30.2588 17.7604C23.3906 17.7213 17.7993 23.2958 17.7412 30.2396C17.7412 31.2176 16.9674 32 16 32C15.0326 32 14.2588 31.2176 14.2588 30.2396C14.2007 23.2958 8.60943 17.7213 1.74123 17.7604C0.773883 17.7604 0 16.978 0 16C0 15.022 0.773883 14.2396 1.74123 14.2396C8.60943 14.2787 14.2007 8.70416 14.2588 1.76039C14.2588 0.782398 15.0326 -4.24407e-08 16 0C16.9674 4.24419e-08 17.7412 0.782398 17.7412 1.76039C17.7993 8.6846 23.3906 14.2787 30.2588 14.2396C31.2261 14.2396 32 15.022 32 16ZM6.96798 16C11.1533 14.4682 14.4724 11.1229 16.0015 6.90417C17.532 11.1166 20.8502 14.4651 25.0349 15.9989C20.8495 17.5298 17.53 20.874 16 25.0918C14.4703 20.8749 11.152 17.5314 6.96798 16Z" fill="#FFA800"/>
</g>
</svg>
