<svg width="768" height="271" viewBox="0 0 768 271" fill="none" xmlns="http://www.w3.org/2000/svg">
<path fill-rule="evenodd" clip-rule="evenodd" d="M2.99634 13.3141C2.00237 13.0869 1.00729 12.8596 0 12.6583L2.53493e-06 265.751C1.00561 265.954 1.99905 266.182 2.99136 266.41L2.99636 266.412L2.99663 266.412C5.28385 266.938 7.56518 267.463 9.97576 267.663C11.8379 267.854 13.3011 268.237 14.7642 269.002C17.2914 270.34 19.9516 271.2 23.4098 270.531C24.6465 270.286 25.8285 269.972 27.0084 269.659L27.0097 269.658C29.5096 268.994 32.0001 268.332 34.9817 268.332C39.6516 268.332 44.5609 267.472 49.2553 266.648H49.2555L50.0118 266.516C52.672 266.038 54.9332 266.42 57.3274 267.376C60.9186 268.81 64.6429 268.81 68.7662 268.237C69.895 268.078 71.0295 267.871 72.1685 267.663C76.5323 266.865 80.9624 266.055 85.3925 267.95C86.3235 268.332 87.7867 268.332 88.8507 268.046C91.0359 267.499 93.2211 267.441 95.4062 267.382C96.2803 267.359 97.1544 267.335 98.0284 267.281C99.1175 267.21 100.207 267.115 101.298 267.02H101.298C104.604 266.733 107.929 266.443 111.329 266.803C112.527 266.898 114.655 266.612 115.054 266.038C117.448 262.883 121.305 262.405 125.695 262.118C125.854 262.109 126.013 262.098 126.17 262.088C127.581 261.994 128.874 261.908 129.951 262.596C130.882 263.17 131.946 263.361 133.143 263.361C134.673 263.409 136.202 263.505 137.732 263.6L137.735 263.6C139.264 263.696 140.792 263.791 142.321 263.839C144.848 263.935 147.109 263.457 148.838 261.927C149.636 261.162 150.7 260.971 151.897 260.78C154.691 260.397 157.351 260.875 159.745 261.927C161.474 262.596 162.937 262.596 164.799 262.501C166.994 262.31 169.222 262.19 171.45 262.07C173.678 261.951 175.906 261.831 178.1 261.64C179.697 261.491 181.258 261.705 182.801 261.918H182.801C184.214 262.113 185.613 262.305 187.012 262.214C192.2 261.831 197.254 261.831 202.308 262.883C203.844 263.184 205.462 263.31 207.087 263.436C210.105 263.67 213.148 263.906 215.742 265.273C216.013 265.403 216.345 265.357 216.655 265.313H216.655C216.802 265.293 216.944 265.273 217.072 265.273C219.068 265.082 221.063 264.891 223.058 265.56C223.989 265.942 225.186 265.656 225.718 265.082C227.447 263.266 229.442 263.648 231.571 264.604C232.103 264.859 232.635 264.859 233.206 264.859C233.492 264.859 233.787 264.859 234.098 264.891C236.09 264.954 238.098 264.891 240.11 264.827C244.142 264.7 248.194 264.572 252.187 265.464C253.96 265.874 255.794 265.85 257.631 265.826C259.651 265.8 261.675 265.774 263.626 266.325C264.017 266.437 264.455 266.351 264.912 266.261L264.912 266.261C265.231 266.198 265.559 266.134 265.887 266.134C266.964 266.037 267.768 265.549 268.524 265.09C269.262 264.642 269.954 264.222 270.809 264.222C276.794 264.03 282.646 263.744 287.967 261.545C288.499 261.353 289.297 261.353 289.962 261.449C292.878 261.952 295.692 261.426 298.493 260.902L298.502 260.9C298.892 260.827 299.282 260.754 299.672 260.684C300.183 260.611 300.695 260.533 301.206 260.455C304.02 260.025 306.834 259.596 309.647 259.919C310.298 260.007 310.899 260.139 311.491 260.27C312.838 260.567 314.144 260.854 315.899 260.589C317.01 260.389 318.127 260.205 319.246 260.021L319.247 260.021C322.95 259.411 326.658 258.8 330.131 257.625C332.126 256.956 333.988 256.765 335.983 256.86C336.781 256.86 337.447 256.86 338.245 256.765C339.534 256.606 340.824 256.381 342.119 256.155C345.5 255.565 348.919 254.969 352.477 255.522C353.186 255.649 353.777 255.437 354.368 255.224L354.369 255.224C354.664 255.118 354.96 255.012 355.27 254.948C355.505 254.894 355.741 254.839 355.978 254.782C356.083 254.757 356.188 254.732 356.294 254.707C358.908 254.083 361.626 253.434 364.448 254.279C366.576 254.853 368.571 255.044 370.832 255.139C379.212 255.331 387.059 257.147 394.641 259.537C396.636 260.111 398.232 260.111 400.094 259.728C401.046 259.538 401.955 259.273 402.856 259.01C404.222 258.611 405.568 258.218 407.011 258.103C410.735 257.816 414.459 258.199 418.051 259.155C418.115 259.175 418.182 259.196 418.251 259.217C419.164 259.503 420.367 259.879 421.11 259.346C423.688 257.758 426.039 258.449 428.477 259.167C428.681 259.227 428.885 259.287 429.09 259.346C432.283 260.397 435.209 259.824 437.736 257.912C438.667 257.147 439.864 256.765 441.327 256.765C445.85 256.573 450.239 255.904 454.096 254.088C454.34 253.99 454.59 253.873 454.848 253.752C455.853 253.279 456.976 252.751 458.353 253.132C460.251 253.628 462.273 253.784 464.301 253.941C466.964 254.147 469.637 254.354 472.053 255.331C474.58 256.382 476.708 256.478 479.767 255.426C484.556 253.705 489.743 254.279 494.664 256.191C495.099 256.369 495.53 256.562 495.962 256.754C498.31 257.802 500.697 258.866 503.842 257.816C503.949 257.739 504.23 257.849 504.474 257.944C504.533 257.967 504.589 257.989 504.64 258.007C505.855 258.651 507.255 259.073 508.661 259.498L508.662 259.498C510.181 259.957 511.708 260.418 513.02 261.162C518.34 264.317 524.459 265.369 531.242 263.744C531.602 263.679 532.022 263.702 532.42 263.723C532.612 263.733 532.799 263.744 532.971 263.744C534.801 263.957 536.686 263.998 538.578 264.04C541.775 264.11 544.993 264.181 548.001 265.082C548.267 265.178 548.799 265.082 549.065 264.986C550.077 264.34 551.182 264.445 552.303 264.55C552.509 264.57 552.716 264.589 552.923 264.604C554.253 264.652 555.55 264.723 556.847 264.795C558.143 264.867 559.44 264.939 560.77 264.986C563.657 265.12 566.087 264.27 568.517 263.42C569.558 263.056 570.6 262.692 571.677 262.405C571.832 262.365 571.987 262.325 572.143 262.284C573.85 261.839 575.557 261.393 577.264 261.832C582.318 262.979 587.239 264.222 592.161 265.751C593.183 266.072 594.235 266.129 595.289 266.186C596.43 266.248 597.572 266.31 598.678 266.707C604.398 268.81 610.649 269.384 617.167 268.906C617.671 268.87 618.178 268.829 618.687 268.788L618.69 268.788C622.2 268.505 625.786 268.215 629.271 269.384C631 269.958 633.261 270.436 635.256 270.244L635.721 270.195C640.079 269.734 644.323 269.285 648.69 269.193C649.843 269.163 650.996 269.015 652.148 268.866C654.72 268.534 657.291 268.203 659.863 269.193C661.725 269.862 663.454 269.193 665.05 268.524C669.839 266.707 674.627 265.178 680.346 265.56C682.728 265.65 684.873 266.08 687.116 266.529L687.529 266.612C689.125 266.898 690.854 267.09 691.652 265.847C692.716 264.222 694.445 264.126 696.308 264.126C697.061 264.126 697.815 264.137 698.569 264.147C700.076 264.168 701.584 264.19 703.091 264.126C706.815 263.839 710.274 263.839 713.865 264.795C714.374 264.941 714.882 265.102 715.393 265.263L715.396 265.263C717.554 265.943 719.746 266.634 722.112 266.325C723.974 266.134 725.836 266.325 727.565 266.707C731.422 267.472 735.679 267.95 739.137 266.898C743.659 265.416 748.418 264.852 753.131 264.293C756.319 263.915 759.487 263.539 762.547 262.883C764.409 262.501 766.271 262.692 768 262.883V9.81084C766.271 9.62101 764.409 9.43118 762.547 9.81084C759.487 10.462 756.319 10.8349 753.131 11.2103C748.418 11.7651 743.659 12.3254 739.137 13.7973C735.679 14.8414 731.422 14.3668 727.565 13.6075C725.836 13.2278 723.974 13.038 722.112 13.2278C719.746 13.5348 717.554 12.8492 715.396 12.1741L715.395 12.1739C714.884 12.0139 714.374 11.8546 713.865 11.7092C710.274 10.76 706.815 10.76 703.091 11.0448C701.584 11.108 700.076 11.0869 698.569 11.0658C697.815 11.0553 697.061 11.0448 696.307 11.0448C694.445 11.0448 692.716 11.1397 691.652 12.7532C690.854 13.9872 689.125 13.7973 687.529 13.5126L687.116 13.4306C684.873 12.9846 682.728 12.5579 680.346 12.4685C674.627 12.0888 669.839 13.6075 665.05 15.4109C663.454 16.0753 661.725 16.7397 659.863 16.0753C657.291 15.0923 654.72 15.4215 652.148 15.7508C650.995 15.8983 649.843 16.0459 648.69 16.0753C644.977 16.1533 641.354 16.4871 637.673 16.8668H631.551C630.74 16.7058 629.963 16.4931 629.271 16.2652C625.786 15.1048 622.2 15.3919 618.69 15.673C618.181 15.7138 617.673 15.7545 617.167 15.7906C610.649 16.2652 604.398 15.6957 598.678 13.6075C597.572 13.2127 596.43 13.1515 595.289 13.0903C594.235 13.0338 593.182 12.9773 592.161 12.6583C587.239 11.1397 582.318 9.90575 577.264 8.76675C575.557 8.33171 573.85 8.77401 572.143 9.2163C571.987 9.2565 571.832 9.2967 571.677 9.33625C570.6 9.62093 569.559 9.98246 568.518 10.344L568.517 10.3443C566.087 11.1881 563.657 12.0319 560.77 11.899C559.44 11.8515 558.143 11.7803 556.847 11.7092C555.55 11.638 554.253 11.5668 552.923 11.5193C552.716 11.5046 552.509 11.4852 552.303 11.4659C551.182 11.3611 550.076 11.2577 549.065 11.899C548.799 11.9939 548.267 12.0888 548.001 11.9939C544.993 11.0995 541.775 11.0292 538.578 10.9593C536.686 10.918 534.801 10.8768 532.971 10.6651C532.799 10.6651 532.612 10.6551 532.42 10.6448C532.022 10.6235 531.601 10.601 531.242 10.6651C524.459 12.2787 518.34 11.2346 513.02 8.10233C511.708 7.36312 510.18 6.90536 508.661 6.45008C507.255 6.02847 505.855 5.60899 504.64 4.97009C504.589 4.95181 504.533 4.93002 504.474 4.90741C504.23 4.81262 503.949 4.70361 503.842 4.78025C500.697 5.82233 498.31 4.76579 495.962 3.726C495.53 3.53459 495.099 3.34375 494.664 3.16667C489.743 1.26834 484.556 0.698846 479.767 2.40734C476.708 3.45142 474.58 3.3565 472.053 2.31242C469.637 1.3427 466.964 1.13743 464.301 0.932953C462.273 0.777175 460.251 0.621862 458.353 0.129344C456.976 -0.248448 455.853 0.275986 454.848 0.745022C454.59 0.865188 454.34 0.981718 454.096 1.07851C450.239 2.88192 445.85 3.54634 441.327 3.73617C439.864 3.73617 438.667 4.11583 437.736 4.87517C435.209 6.7735 432.283 7.34299 429.09 6.29891C428.887 6.24071 428.683 6.18139 428.481 6.12224L428.477 6.12107C426.039 5.40894 423.688 4.72223 421.11 6.29891C420.367 6.82872 419.164 6.45491 418.251 6.17097L418.246 6.1695C418.179 6.14874 418.114 6.12847 418.051 6.10908C414.459 5.15991 410.735 4.78025 407.011 5.065C405.568 5.17938 404.222 5.56948 402.856 5.96531L402.856 5.96543C401.955 6.22646 401.046 6.48999 400.094 6.67858C398.232 7.05824 396.636 7.05824 394.641 6.48874C387.059 4.11583 379.212 2.31242 370.832 2.12258C368.571 2.02767 366.576 1.83784 364.448 1.26834C361.626 0.429265 358.908 1.07369 356.293 1.69347L356.293 1.69365C355.95 1.77491 355.609 1.85574 355.27 1.93275C354.96 1.99601 354.664 2.10144 354.369 2.20688L354.368 2.20695C353.777 2.41788 353.186 2.62881 352.477 2.50225C348.919 1.95329 345.5 2.54534 342.119 3.13071C340.824 3.35504 339.534 3.57838 338.245 3.73616C337.447 3.83108 336.781 3.83108 335.983 3.83108C333.988 3.73616 332.126 3.926 330.131 4.59041C326.658 5.75669 322.95 6.36318 319.247 6.96875C318.128 7.15172 317.01 7.3346 315.899 7.53282C314.144 7.79645 312.838 7.5109 311.491 7.2164C310.898 7.08678 310.298 6.95543 309.647 6.8684C306.834 6.54715 304.02 6.97343 301.206 7.39972L301.205 7.39995C300.694 7.47738 300.183 7.5548 299.672 7.62773C299.279 7.69778 298.886 7.7707 298.493 7.84367C295.692 8.36392 292.878 8.88652 289.962 8.38707C289.297 8.29215 288.499 8.29215 287.967 8.48198C282.646 10.6651 276.794 10.9498 270.808 11.1396C269.954 11.1396 269.262 11.5567 268.524 12.0016C267.768 12.4572 266.964 12.9419 265.887 13.038C265.559 13.038 265.231 13.1022 264.912 13.1646C264.455 13.2539 264.017 13.3396 263.626 13.2278C261.675 12.6809 259.651 12.707 257.631 12.733C255.794 12.7567 253.96 12.7803 252.187 12.3736C248.194 11.4871 244.142 11.6144 240.11 11.741C238.098 11.8042 236.09 11.8673 234.098 11.8041C233.787 11.7724 233.492 11.7724 233.206 11.7724C232.635 11.7724 232.103 11.7724 231.571 11.5193C229.442 10.5701 227.447 10.1905 225.718 11.9939C225.186 12.5634 223.989 12.8481 223.058 12.4685C221.063 11.8041 219.068 11.9939 217.072 12.1837C216.944 12.1837 216.802 12.2034 216.655 12.2237C216.345 12.2666 216.013 12.3125 215.742 12.1837C213.148 10.8263 210.105 10.5919 207.087 10.3595C205.462 10.2344 203.844 10.1098 202.308 9.81081C197.254 8.76673 192.2 8.76673 187.012 9.14639C185.613 9.23715 184.214 9.04587 182.801 8.85261C181.258 8.64163 179.697 8.42828 178.1 8.57689C175.906 8.76673 173.678 8.88537 171.45 9.00402C169.222 9.12266 166.994 9.24131 164.799 9.43114C162.937 9.52606 161.474 9.52606 159.745 8.86164C157.351 7.81756 154.691 7.34298 151.897 7.72264C150.7 7.91248 149.636 8.10231 148.838 8.86164C147.109 10.3803 144.848 10.8549 142.321 10.76C140.791 10.7125 139.262 10.6176 137.732 10.5227C136.202 10.4278 134.673 10.3328 133.143 10.2854C131.946 10.2854 130.882 10.0956 129.951 9.52605C128.874 8.84277 127.581 8.92805 126.17 9.02114C126.013 9.03151 125.854 9.04196 125.695 9.05147C121.305 9.33622 117.448 9.8108 115.054 12.943C114.655 13.5125 112.527 13.7973 111.329 13.7024C107.929 13.3455 104.604 13.6326 101.298 13.9181C100.207 14.0123 99.1175 14.1063 98.0284 14.177C97.1543 14.2312 96.2803 14.2544 95.4062 14.2777C93.221 14.3358 91.0359 14.3939 88.8507 14.9363C87.7866 15.221 86.3235 15.221 85.3925 14.8414C80.9624 12.9596 76.5322 13.7639 72.1685 14.5562C71.0295 14.763 69.895 14.9689 68.7662 15.1261C64.6429 15.6956 60.9186 15.6956 57.3274 14.2719C54.9332 13.3227 52.672 12.943 50.0118 13.4176L49.2555 13.5492C44.5611 14.3664 39.6516 15.221 34.9817 15.221C32.0001 15.221 29.5093 15.878 27.0095 16.5374L27.0094 16.5374L27.0094 16.5374C26.5895 16.6482 26.1694 16.759 25.7467 16.8668H16.9319C16.1892 16.5921 15.4715 16.2574 14.7642 15.8855C13.3011 15.1261 11.8379 14.7465 9.97575 14.5566C7.56508 14.3581 5.28366 13.8368 2.99635 13.3141L2.99634 13.3141Z" fill="#FFCB66"/>
</svg>
