<svg width="768" height="393" viewBox="0 0 768 393" fill="none" xmlns="http://www.w3.org/2000/svg">
<path fill-rule="evenodd" clip-rule="evenodd" d="M0 29V33.3501V393H768V33.3501V29V9.81084C766.271 9.62101 764.409 9.43118 762.547 9.81084C759.487 10.462 756.319 10.8349 753.131 11.2103C748.418 11.7651 743.659 12.3254 739.137 13.7973C735.679 14.8414 731.422 14.3668 727.565 13.6075C725.836 13.2278 723.974 13.038 722.112 13.2278C719.746 13.5348 717.554 12.8492 715.396 12.1741C714.884 12.0141 714.375 11.8547 713.865 11.7092C710.274 10.76 706.815 10.76 703.091 11.0448C701.584 11.108 700.076 11.0869 698.569 11.0658C697.815 11.0553 697.061 11.0448 696.308 11.0448C694.445 11.0448 692.716 11.1397 691.652 12.7532C690.854 13.9872 689.125 13.7973 687.529 13.5126L687.116 13.4306C684.873 12.9846 682.728 12.5579 680.346 12.4685C674.627 12.0888 669.839 13.6075 665.05 15.4109C663.454 16.0753 661.725 16.7397 659.863 16.0753C657.291 15.0923 654.72 15.4215 652.148 15.7508C650.996 15.8983 649.843 16.0459 648.69 16.0753C644.323 16.167 640.079 16.6127 635.721 17.0706L635.256 17.1194C633.261 17.3092 631 16.8347 629.271 16.2652C625.786 15.1048 622.2 15.3919 618.69 15.673C618.181 15.7138 617.673 15.7545 617.167 15.7906C610.649 16.2652 604.398 15.6957 598.678 13.6075C597.572 13.2127 596.43 13.1515 595.289 13.0903C594.235 13.0338 593.183 12.9773 592.161 12.6583C587.239 11.1397 582.318 9.90575 577.264 8.76675C575.557 8.33171 573.85 8.77401 572.143 9.2163C571.987 9.2565 571.832 9.29671 571.677 9.33625C570.6 9.621 569.558 9.98263 568.517 10.3443C566.087 11.1881 563.657 12.0319 560.77 11.899C559.44 11.8515 558.143 11.7803 556.847 11.7092C555.55 11.638 554.253 11.5668 552.923 11.5193C552.716 11.5046 552.509 11.4852 552.303 11.466C551.182 11.3611 550.077 11.2577 549.065 11.899C548.799 11.9939 548.267 12.0888 548.001 11.9939C544.993 11.0995 541.775 11.0292 538.578 10.9593C536.686 10.918 534.801 10.8768 532.971 10.6651C532.799 10.6651 532.612 10.6551 532.42 10.6448C532.022 10.6235 531.602 10.601 531.242 10.6651C524.459 12.2787 518.34 11.2346 513.02 8.10233C511.708 7.36312 510.18 6.90536 508.661 6.45008C507.255 6.02847 505.855 5.60899 504.64 4.97009C504.589 4.95181 504.533 4.93001 504.474 4.9074C504.23 4.81262 503.949 4.70362 503.842 4.78025C500.697 5.82233 498.31 4.76579 495.962 3.72601C495.53 3.5346 495.099 3.34375 494.664 3.16667C489.743 1.26834 484.556 0.698846 479.767 2.40734C476.708 3.45142 474.58 3.3565 472.053 2.31242C469.637 1.3427 466.964 1.13743 464.301 0.932954C462.273 0.777175 460.251 0.621862 458.353 0.129344C456.976 -0.248447 455.853 0.275981 454.848 0.745015C454.59 0.865184 454.34 0.981716 454.096 1.07851C450.239 2.88192 445.85 3.54634 441.327 3.73617C439.864 3.73617 438.667 4.11583 437.736 4.87517C435.209 6.7735 432.283 7.34299 429.09 6.29891C428.885 6.24033 428.681 6.18061 428.477 6.12107C426.039 5.40894 423.688 4.72223 421.11 6.29891C420.367 6.82872 419.164 6.4549 418.251 6.17096C418.182 6.14969 418.115 6.12892 418.051 6.10908C414.459 5.15991 410.735 4.78025 407.011 5.065C405.568 5.17939 404.222 5.56948 402.856 5.96532C401.955 6.22639 401.046 6.48996 400.094 6.67858C398.232 7.05824 396.636 7.05824 394.641 6.48874C387.059 4.11583 379.212 2.31242 370.832 2.12258C368.571 2.02767 366.576 1.83784 364.448 1.26834C361.626 0.429269 358.908 1.07368 356.294 1.69346C355.951 1.77478 355.609 1.85568 355.27 1.93275C354.96 1.99603 354.664 2.10149 354.368 2.20695C353.777 2.41788 353.186 2.6288 352.477 2.50225C348.919 1.95329 345.5 2.54534 342.119 3.13071C340.824 3.35504 339.534 3.57838 338.245 3.73616C337.447 3.83108 336.781 3.83108 335.983 3.83108C333.988 3.73616 332.126 3.926 330.131 4.59041C326.658 5.75669 322.95 6.36318 319.247 6.96875C318.128 7.15172 317.01 7.3346 315.899 7.53282C314.144 7.79645 312.838 7.5109 311.491 7.2164C310.899 7.08678 310.298 6.95543 309.647 6.8684C306.834 6.54715 304.02 6.97343 301.206 7.39972C300.695 7.47722 300.183 7.55472 299.672 7.62773C299.279 7.69778 298.886 7.77071 298.493 7.84368C295.692 8.36393 292.878 8.88652 289.962 8.38707C289.297 8.29215 288.499 8.29215 287.967 8.48198C282.646 10.6651 276.794 10.9498 270.809 11.1396C269.954 11.1396 269.262 11.5567 268.524 12.0016C267.768 12.4572 266.964 12.9419 265.887 13.038C265.559 13.038 265.231 13.1022 264.912 13.1646C264.455 13.2539 264.017 13.3396 263.626 13.2278C261.675 12.6809 259.651 12.707 257.631 12.733C255.794 12.7567 253.96 12.7803 252.187 12.3736C248.194 11.4871 244.142 11.6144 240.11 11.741C238.098 11.8042 236.09 11.8673 234.098 11.8041C233.787 11.7724 233.492 11.7724 233.206 11.7724C232.635 11.7724 232.103 11.7724 231.571 11.5193C229.442 10.5701 227.447 10.1905 225.718 11.9939C225.186 12.5634 223.989 12.8481 223.058 12.4685C221.063 11.8041 219.068 11.9939 217.072 12.1837C216.944 12.1837 216.802 12.2034 216.655 12.2237C216.345 12.2666 216.013 12.3125 215.742 12.1837C213.148 10.8263 210.105 10.5919 207.087 10.3595C205.462 10.2344 203.844 10.1098 202.308 9.81081C197.254 8.76673 192.2 8.76673 187.012 9.14639C185.613 9.23715 184.214 9.04587 182.801 8.85261C181.258 8.64163 179.697 8.42828 178.1 8.57689C175.906 8.76673 173.678 8.88537 171.45 9.00402C169.222 9.12266 166.994 9.24131 164.799 9.43114C162.937 9.52606 161.474 9.52606 159.745 8.86164C157.351 7.81756 154.691 7.34298 151.897 7.72264C150.7 7.91248 149.636 8.10231 148.838 8.86164C147.109 10.3803 144.848 10.8549 142.321 10.76C140.791 10.7125 139.262 10.6176 137.732 10.5227C136.202 10.4278 134.673 10.3328 133.143 10.2854C131.946 10.2854 130.882 10.0956 129.951 9.52605C128.874 8.84277 127.581 8.92805 126.17 9.02114C126.013 9.03151 125.854 9.04196 125.695 9.05147C121.305 9.33622 117.448 9.8108 115.054 12.943C114.655 13.5125 112.527 13.7973 111.329 13.7024C107.929 13.3455 104.604 13.6326 101.298 13.9181C100.207 14.0123 99.1175 14.1063 98.0284 14.177C97.1544 14.2312 96.2803 14.2544 95.4062 14.2777C93.2211 14.3358 91.0359 14.3939 88.8507 14.9363C87.7867 15.221 86.3235 15.221 85.3925 14.8414C80.9624 12.9596 76.5323 13.7639 72.1685 14.5562C71.0295 14.763 69.895 14.9689 68.7662 15.1261C64.6429 15.6956 60.9186 15.6956 57.3274 14.2719C54.9332 13.3227 52.672 12.943 50.0118 13.4176C49.7604 13.4613 49.5083 13.5052 49.2555 13.5492C44.5611 14.3664 39.6517 15.221 34.9817 15.221C32.0001 15.221 29.5095 15.878 27.0097 16.5374C25.8293 16.8487 24.6469 17.1606 23.4098 17.4041C19.9516 18.0685 17.2914 17.2143 14.7642 15.8855C13.3011 15.1261 11.8379 14.7465 9.97576 14.5566C7.56508 14.3581 5.28366 13.8368 2.99635 13.3141C2.00238 13.087 1.00729 12.8596 2.53493e-06 12.6583L0 29Z" fill="#2F4858"/>
</svg>
