<svg width="768" height="96" viewBox="0 0 768 96" fill="none" xmlns="http://www.w3.org/2000/svg">
<path fill-rule="evenodd" clip-rule="evenodd" d="M811.6 0H-281.2V68.0568H-282V87.7797C-279.538 87.9388 -276.886 88.0979 -274.235 87.7797C-269.878 87.2342 -265.367 86.9217 -260.827 86.6072C-254.116 86.1423 -247.339 85.6729 -240.9 84.4396C-235.976 83.5648 -229.915 83.9624 -224.422 84.5986C-221.96 84.9167 -219.308 85.0758 -216.657 84.9167C-213.288 84.6596 -210.167 85.234 -207.094 85.7996C-206.365 85.9337 -205.64 86.0673 -204.914 86.1892C-199.8 86.9845 -194.876 86.9845 -189.572 86.7459C-187.426 86.6929 -185.279 86.7105 -183.133 86.7282C-182.06 86.737 -180.986 86.7459 -179.913 86.7459C-177.261 86.7459 -174.799 86.6664 -173.284 85.3144C-172.148 84.2805 -169.685 84.4396 -167.413 84.6781C-167.216 84.7011 -167.02 84.724 -166.825 84.7468C-163.631 85.1206 -160.576 85.478 -157.185 85.553C-149.041 85.8711 -142.222 84.5986 -135.404 83.0876C-133.131 82.5309 -130.669 81.9742 -128.017 82.5309C-124.355 83.3546 -120.694 83.0787 -117.032 82.8028C-115.39 82.6792 -113.749 82.5555 -112.108 82.5309C-105.889 82.4541 -99.8464 82.0806 -93.6396 81.6969L-92.9781 81.6561C-90.137 81.497 -86.9172 81.8947 -84.455 82.3718C-79.4934 83.3441 -74.3874 83.1035 -69.3892 82.868C-68.6635 82.8338 -67.94 82.7997 -67.2196 82.7695C-57.9389 82.3718 -49.0371 82.849 -40.8929 84.5986C-39.3174 84.9294 -37.6908 84.9807 -36.0661 85.032C-34.5658 85.0793 -33.0672 85.1266 -31.6122 85.3939C-24.6044 86.6664 -17.5966 87.7002 -10.3994 88.6545C-7.96872 89.0191 -5.53806 88.6485 -3.10742 88.2779C-2.88644 88.2442 -2.66547 88.2105 -2.44449 88.1774C-0.910339 87.9388 0.572662 87.6358 2.05566 87.3328C5.51602 86.6258 8.97638 85.9188 13.0864 86.0301C14.9804 86.0699 16.8271 86.1295 18.6737 86.1892C20.5204 86.2488 22.367 86.3085 24.261 86.3482C24.5553 86.3606 24.8497 86.3768 25.1433 86.393C26.7392 86.4808 28.314 86.5675 29.7536 86.0301C30.1324 85.9506 30.89 85.8711 31.2688 85.9506C35.5523 86.7 40.1349 86.7589 44.6876 86.8175C47.3819 86.8521 50.0658 86.8866 52.6711 87.064C52.917 87.064 53.1828 87.0724 53.4557 87.081C54.0235 87.0989 54.6216 87.1177 55.1333 87.064C64.7928 85.712 73.5052 86.5868 81.0812 89.2113C82.9496 89.8306 85.1244 90.2142 87.2873 90.5956C89.2903 90.9489 91.2833 91.3004 93.0135 91.8357C93.0864 91.851 93.1664 91.8692 93.2493 91.8882C93.597 91.9676 93.9969 92.0589 94.1499 91.9947C98.6286 91.1216 102.027 92.0069 105.371 92.8781C105.986 93.0384 106.6 93.1983 107.219 93.3467C114.226 94.9373 121.613 95.4144 128.431 93.9829C132.788 93.1081 135.818 93.1877 139.417 94.0625C142.857 94.875 146.663 95.047 150.454 95.2183C153.342 95.3488 156.222 95.4789 158.925 95.8916C160.885 96.2082 162.485 95.7688 163.916 95.3758C164.283 95.2751 164.638 95.1774 164.986 95.0963C170.478 93.5853 176.729 93.0286 183.168 92.8695C185.252 92.8695 186.956 92.5514 188.282 91.9152C191.881 90.3246 196.047 89.8475 200.593 90.7223C200.885 90.7714 201.176 90.8214 201.467 90.8713C204.939 91.468 208.287 92.0433 211.957 90.7223C213.014 90.2784 214.727 90.5916 216.028 90.8295C216.126 90.8473 216.221 90.8647 216.313 90.8813C221.427 91.6766 226.73 91.9947 232.034 91.7561C234.088 91.6603 236.005 91.3335 237.95 91.0018C239.232 90.783 240.528 90.5622 241.882 90.4042C244.534 90.0861 246.807 90.0861 249.648 90.5632C260.444 92.5514 271.618 94.0625 283.551 94.2215C286.77 94.301 289.611 94.4601 292.642 94.9373C296.66 95.6403 300.53 95.1004 304.253 94.5811C304.741 94.5129 305.227 94.4452 305.711 94.3806C306.152 94.3276 306.573 94.2392 306.994 94.1508C307.836 93.9741 308.678 93.7974 309.688 93.9034C314.754 94.3634 319.623 93.8673 324.436 93.3768C326.281 93.1889 328.117 93.0017 329.954 92.8695C331.09 92.79 332.037 92.79 333.174 92.79C336.015 92.8695 338.666 92.7105 341.507 92.1538C346.453 91.1766 351.733 90.6684 357.006 90.161C358.599 90.0077 360.191 89.8545 361.773 89.6884C364.272 89.4675 366.131 89.7068 368.049 89.9535C368.893 90.0621 369.749 90.1722 370.675 90.2451C374.682 90.5143 378.688 90.1571 382.695 89.7999C383.423 89.735 384.152 89.6701 384.88 89.6089C385.439 89.5502 385.998 89.4891 386.558 89.4279C390.547 88.992 394.554 88.5542 398.706 88.9727C399.653 89.0522 400.79 89.0522 401.547 88.8931C409.123 87.064 417.457 86.8254 425.98 86.6664C427.196 86.6664 428.182 86.3169 429.233 85.9442C430.309 85.5624 431.455 85.1563 432.988 85.0758C433.455 85.0758 433.923 85.022 434.377 84.9697C435.027 84.8948 435.65 84.8231 436.208 84.9167C438.986 85.375 441.868 85.3531 444.745 85.3313C447.36 85.3115 449.971 85.2917 452.496 85.6325C458.182 86.3752 463.951 86.2686 469.693 86.1625C472.559 86.1095 475.417 86.0567 478.255 86.1096C478.697 86.1362 479.117 86.1362 479.524 86.1362C480.338 86.1362 481.096 86.1362 481.853 86.3482C484.884 87.1435 487.725 87.4616 490.187 85.9506C490.944 85.4734 492.649 85.2348 493.975 85.553C496.816 86.1096 499.657 85.9506 502.498 85.7915C502.681 85.7915 502.883 85.7751 503.093 85.758C503.534 85.7221 504.007 85.6837 504.392 85.7915C508.085 86.9288 512.419 87.1252 516.717 87.32C519.031 87.4249 521.334 87.5293 523.521 87.7797C530.719 88.6545 537.916 88.6545 545.302 88.3364C547.295 88.2604 549.287 88.4207 551.299 88.5826C553.497 88.7594 555.719 88.9381 557.992 88.8136C561.117 88.6546 564.29 88.5551 567.462 88.4557C570.635 88.3563 573.807 88.2569 576.932 88.0979C579.584 88.0183 581.667 88.0183 584.13 88.575C587.539 89.4498 591.327 89.8475 595.304 89.5294C597.009 89.3703 598.524 89.2113 599.66 88.575C602.123 87.3026 605.342 86.9049 608.941 86.9845C611.119 87.0242 613.297 87.1038 615.475 87.1833C617.654 87.2628 619.832 87.3423 622.01 87.3821C623.714 87.3821 625.23 87.5412 626.555 88.0183C628.089 88.5908 629.93 88.5194 631.939 88.4414C632.163 88.4327 632.389 88.4239 632.616 88.416C638.866 88.1774 644.359 87.7797 647.768 85.1553C648.336 84.6781 651.367 84.4396 653.071 84.5191C657.913 84.8181 662.648 84.5775 667.356 84.3384C668.91 84.2594 670.461 84.1806 672.012 84.1215C673.256 84.076 674.501 84.0565 675.745 84.037C678.857 83.9884 681.969 83.9397 685.08 83.4852C686.595 83.2466 688.679 83.2466 690.005 83.5648C696.313 85.1414 702.621 84.4675 708.835 83.8037C710.457 83.6304 712.072 83.4579 713.68 83.3262C719.551 82.849 724.854 82.849 729.968 84.0419C733.377 84.8372 736.597 85.1553 740.385 84.7577L741.462 84.6474C748.147 83.9627 755.138 83.2466 761.787 83.2466C766.033 83.2466 769.579 82.6962 773.139 82.1437C774.82 81.8829 776.504 81.6216 778.265 81.4175C783.19 80.8608 786.978 81.5765 790.576 82.6899C792.66 83.3262 794.743 83.6443 797.395 83.8033C800.828 83.9697 804.076 84.4064 807.333 84.8444C808.748 85.0347 810.166 85.2253 811.6 85.3939V74.0117V68.0568V0Z" fill="white"/>
</svg>
