<svg width="320" height="59" viewBox="0 0 320 59" fill="none" xmlns="http://www.w3.org/2000/svg">
<path fill-rule="evenodd" clip-rule="evenodd" d="M553.275 -9H-210.441V38.5623H-211V52.3459C-209.279 52.4571 -207.426 52.5682 -205.573 52.3459C-202.528 51.9647 -199.376 51.7463 -196.203 51.5265C-191.513 51.2016 -186.777 50.8735 -182.277 50.0116C-178.835 49.4002 -174.6 49.6781 -170.761 50.1228C-169.04 50.3451 -167.187 50.4562 -165.334 50.3451C-162.98 50.1654 -160.799 50.5668 -158.651 50.9621C-158.142 51.0558 -157.635 51.1492 -157.127 51.2343C-153.554 51.7901 -150.112 51.7901 -146.406 51.6234C-144.906 51.5863 -143.406 51.5987 -141.906 51.611C-141.155 51.6172 -140.405 51.6234 -139.655 51.6234C-137.802 51.6234 -136.081 51.5678 -135.023 50.623C-134.228 49.9005 -132.508 50.0116 -130.919 50.1783C-130.782 50.1944 -130.645 50.2104 -130.509 50.2263C-128.276 50.4875 -126.142 50.7373 -123.772 50.7897C-118.08 51.012 -113.315 50.1228 -108.55 49.0668C-106.961 48.6777 -105.24 48.2887 -103.387 48.6777C-100.828 49.2533 -98.2692 49.0606 -95.7102 48.8678C-94.563 48.7813 -93.4158 48.6949 -92.2687 48.6777C-87.9225 48.624 -83.6998 48.363 -79.3621 48.0949L-78.8998 48.0663C-76.9144 47.9552 -74.6641 48.2331 -72.9434 48.5666C-69.4759 49.246 -65.9075 49.0779 -62.4145 48.9133C-61.9073 48.8894 -61.4017 48.8656 -60.8982 48.8444C-54.4123 48.5666 -48.1912 48.9 -42.4995 50.1228C-41.3985 50.3539 -40.2617 50.3898 -39.1263 50.4256C-38.0777 50.4587 -37.0304 50.4918 -36.0136 50.6786C-31.1161 51.5678 -26.2186 52.2904 -21.1887 52.9573C-19.4901 53.212 -17.7913 52.9531 -16.0927 52.6941C-15.9382 52.6705 -15.7838 52.647 -15.6294 52.6238C-14.5572 52.4571 -13.5208 52.2453 -12.4844 52.0336C-10.0661 51.5395 -7.6478 51.0454 -4.77547 51.1232C-3.45178 51.151 -2.16118 51.1927 -0.87059 51.2344C0.419922 51.276 1.71043 51.3177 3.03404 51.3455C3.23976 51.3541 3.44548 51.3655 3.65071 51.3768C4.76595 51.4381 5.8665 51.4987 6.87263 51.1232C7.13737 51.0676 7.66681 51.012 7.93155 51.0676C10.9251 51.5914 14.1277 51.6325 17.3094 51.6734C19.1924 51.6976 21.068 51.7217 22.8888 51.8457C23.0606 51.8457 23.2464 51.8516 23.4371 51.8576C23.8339 51.8701 24.2519 51.8833 24.6095 51.8457C31.3601 50.9009 37.4489 51.5122 42.7435 53.3464C44.0493 53.7792 45.5691 54.0473 47.0807 54.3138C48.4806 54.5607 49.8733 54.8064 51.0825 55.1805C51.1335 55.1912 51.1894 55.2039 51.2473 55.2172C51.4903 55.2727 51.7698 55.3365 51.8767 55.2916C55.0067 54.6814 57.3815 55.3001 59.7186 55.909C60.1488 56.021 60.5778 56.1328 61.0099 56.2365C65.9074 57.3481 71.0696 57.6815 75.8347 56.6811C78.8792 56.0697 80.997 56.1253 83.5119 56.7367C85.916 57.3045 88.576 57.4247 91.2256 57.5444C93.2441 57.6357 95.2567 57.7266 97.1455 58.015C98.5153 58.2362 99.6334 57.9292 100.633 57.6545C100.89 57.5841 101.138 57.5159 101.381 57.4592C105.22 56.4032 109.588 56.0142 114.088 55.903C115.544 55.903 116.736 55.6807 117.662 55.236C120.177 54.1245 123.089 53.791 126.266 54.4024C126.47 54.4367 126.673 54.4716 126.876 54.5065C129.303 54.9235 131.642 55.3256 134.208 54.4024C134.947 54.0921 136.144 54.311 137.053 54.4773C137.121 54.4897 137.188 54.5019 137.252 54.5135C140.826 55.0693 144.532 55.2916 148.238 55.1249C149.674 55.0579 151.014 54.8295 152.373 54.5977C153.269 54.4448 154.174 54.2905 155.121 54.18C156.974 53.9577 158.563 53.9577 160.548 54.2912C168.093 55.6807 175.903 56.7367 184.242 56.8478C186.492 56.9034 188.477 57.0146 190.595 57.3481C193.403 57.8394 196.108 57.462 198.71 57.0991C199.051 57.0515 199.391 57.0041 199.728 56.959C200.037 56.9219 200.331 56.8602 200.625 56.7984C201.214 56.6749 201.802 56.5514 202.508 56.6255C206.049 56.947 209.451 56.6003 212.815 56.2575C214.104 56.1262 215.388 55.9954 216.671 55.903C217.465 55.8474 218.127 55.8474 218.921 55.8474C220.907 55.903 222.76 55.7918 224.745 55.4028C228.201 54.7199 231.892 54.3647 235.577 54.0101C236.69 53.903 237.803 53.7959 238.908 53.6798C240.655 53.5255 241.954 53.6927 243.295 53.8651C243.884 53.941 244.482 54.0179 245.129 54.0689C247.93 54.257 250.73 54.0074 253.53 53.7578C254.039 53.7124 254.548 53.667 255.057 53.6243C255.448 53.5832 255.838 53.5405 256.229 53.4978C259.017 53.1932 261.817 52.8872 264.719 53.1796C265.381 53.2352 266.175 53.2352 266.705 53.124C272 51.8457 277.824 51.679 283.78 51.5678C284.63 51.5678 285.319 51.3236 286.053 51.0631C286.806 50.7963 287.606 50.5125 288.678 50.4562C289.004 50.4562 289.331 50.4186 289.648 50.3821C290.103 50.3298 290.538 50.2796 290.928 50.3451C292.869 50.6654 294.883 50.6501 296.894 50.6348C298.722 50.621 300.546 50.6071 302.311 50.8453C306.284 51.3643 310.317 51.2898 314.329 51.2157C316.332 51.1787 318.33 51.1418 320.313 51.1788C320.622 51.1973 320.916 51.1973 321.2 51.1973C321.769 51.1973 322.298 51.1973 322.828 51.3455C324.945 51.9013 326.931 52.1236 328.652 51.0676C329.181 50.7341 330.372 50.5674 331.299 50.7897C333.284 51.1788 335.27 51.0676 337.255 50.9565C337.383 50.9565 337.525 50.9449 337.671 50.933C337.98 50.9079 338.31 50.8811 338.579 50.9565C341.16 51.7513 344.189 51.8885 347.193 52.0246C348.81 52.0979 350.419 52.1709 351.948 52.3459C356.978 52.9573 362.008 52.9573 367.17 52.735C368.562 52.6818 369.954 52.7938 371.361 52.907C372.897 53.0306 374.449 53.1555 376.038 53.0685C378.222 52.9573 380.439 52.8878 382.657 52.8184C384.874 52.7489 387.091 52.6794 389.275 52.5682C391.128 52.5127 392.584 52.5127 394.305 52.9017C396.687 53.5131 399.335 53.791 402.114 53.5687C403.306 53.4575 404.364 53.3464 405.159 52.9017C406.879 52.0125 409.13 51.7346 411.645 51.7901C413.167 51.8179 414.689 51.8735 416.211 51.9291C417.733 51.9847 419.255 52.0402 420.778 52.068C421.969 52.068 423.028 52.1792 423.954 52.5127C425.026 52.9128 426.313 52.8628 427.717 52.8083C427.873 52.8023 428.031 52.7961 428.19 52.7906C432.558 52.6238 436.397 52.3459 438.779 50.5118C439.176 50.1783 441.294 50.0116 442.486 50.0672C445.869 50.2761 449.178 50.108 452.469 49.9409C453.554 49.8857 454.638 49.8307 455.722 49.7893C456.592 49.7575 457.462 49.7439 458.331 49.7303C460.506 49.6963 462.681 49.6623 464.855 49.3447C465.914 49.1779 467.37 49.1779 468.297 49.4002C472.705 50.5021 477.114 50.0311 481.457 49.5672C482.59 49.4461 483.719 49.3255 484.842 49.2335C488.946 48.9 492.652 48.9 496.226 49.7337C498.608 50.2895 500.858 50.5118 503.506 50.2339L504.258 50.1569C508.93 49.6784 513.816 49.1779 518.463 49.1779C521.43 49.1779 523.909 48.7932 526.396 48.4071C527.571 48.2248 528.748 48.0422 529.979 47.8996C533.42 47.5105 536.068 48.0108 538.582 48.7889C540.038 49.2335 541.495 49.4558 543.348 49.567C545.747 49.6832 548.017 49.9885 550.293 50.2946C551.282 50.4276 552.273 50.5607 553.275 50.6786L553.275 42.724L553.275 38.5623L553.275 -9Z" fill="white"/>
</svg>
