<svg width="320" height="733" viewBox="0 0 320 733" fill="none" xmlns="http://www.w3.org/2000/svg">
<path fill-rule="evenodd" clip-rule="evenodd" d="M311.267 18.7264C314.542 18.9355 317.299 17.6075 320.056 16.2796V354.2H321V731.544H320.056V732.047H0.00628364V731.544H-1V354.2H0.00628364V13.1994C0.484269 13.2492 1.49809 13.3488 1.72951 13.3488C2.33318 13.05 3.23873 13.05 3.9933 13.1994C7.30218 13.9854 10.495 13.163 13.6736 12.3442L13.6737 12.3442C14.1194 12.2294 14.5649 12.1146 15.0105 12.0044C15.5904 11.8895 16.1704 11.7677 16.7505 11.6458L16.7518 11.6455C19.9444 10.9746 23.1369 10.3038 26.3295 10.8093C27.0674 10.9463 27.7489 11.153 28.4214 11.3569L28.4214 11.3569L28.4216 11.357L28.4217 11.357C29.9499 11.8205 31.4316 12.2699 33.4227 11.855C34.6834 11.543 35.9522 11.2552 37.2216 10.9673C41.4228 10.0142 45.6305 9.05976 49.5711 7.22429C51.835 6.17865 53.9479 5.87989 56.2117 6.02927C57.1172 6.02927 57.8718 6.02927 58.7773 5.87989C60.2407 5.63158 61.7041 5.28009 63.1739 4.92705C67.0095 4.00579 70.8888 3.07404 74.9257 3.93798C75.7307 4.13716 76.4016 3.80511 77.0724 3.47316C77.4077 3.30721 77.743 3.14129 78.0951 3.04172C78.4802 2.92044 78.8673 2.79313 79.2565 2.66514L79.2566 2.66511C82.2227 1.68973 85.3066 0.675583 88.5085 1.99608C90.9233 2.89234 93.1871 3.1911 95.7527 3.34047C105.261 3.63923 114.165 6.47741 122.767 10.2118C125.031 11.1081 126.842 11.1081 128.955 10.5106C130.035 10.2138 131.067 9.79898 132.089 9.38812L132.089 9.38807C133.639 8.76512 135.166 8.1512 136.803 7.97118C141.029 7.52305 145.255 8.12056 149.329 9.61433C149.403 9.64543 149.478 9.67797 149.555 9.7113L149.557 9.71173C150.593 10.1586 151.958 10.7469 152.801 9.91309C155.725 7.43175 158.393 8.51247 161.16 9.63321L161.161 9.63393L161.173 9.63858C161.4 9.7305 161.627 9.82265 161.856 9.91309C165.478 11.5562 168.798 10.66 171.666 7.67243C172.722 6.47741 174.08 5.8799 175.74 5.8799C180.872 5.58114 185.852 4.5355 190.229 1.69733C190.506 1.54501 190.789 1.36161 191.081 1.1725C192.221 0.434341 193.496 -0.391003 195.058 0.203559C197.212 0.978673 199.506 1.2231 201.808 1.46826C204.829 1.79006 207.862 2.11312 210.603 3.63924C213.47 5.28239 215.885 5.43177 219.356 3.78862C224.789 1.09983 230.675 1.99609 236.259 4.98364C236.752 5.26232 237.241 5.56267 237.732 5.8639C240.396 7.50029 243.104 9.16306 246.673 7.52306C246.795 7.40244 247.113 7.574 247.39 7.72318L247.392 7.72388L247.395 7.72582C247.46 7.76044 247.522 7.79376 247.578 7.82181C248.957 8.8273 250.545 9.48748 252.141 10.151C253.865 10.8675 255.598 11.5879 257.086 12.7513C263.123 17.6807 270.065 19.3239 277.762 16.7845C278.17 16.6836 278.647 16.719 279.099 16.7526C279.317 16.7687 279.528 16.7845 279.724 16.7845C281.8 17.1177 283.939 17.1825 286.086 17.2475C289.714 17.3575 293.365 17.4681 296.778 18.8757C297.08 19.0251 297.684 18.8757 297.986 18.7264C299.133 17.7171 300.388 17.8799 301.659 18.0449C301.893 18.0752 302.128 18.1056 302.362 18.1289C303.872 18.2036 305.343 18.3156 306.815 18.4276C308.286 18.5396 309.758 18.6517 311.267 18.7264Z" fill="#FFCB66"/>
</svg>
